<svg width="22" height="14" viewBox="0 0 22 14" fill="none" xmlns="http://www.w3.org/2000/svg">
<path d="M8.75 0.75H14.75M8.75 8.75H14.75M8.75 4.75H20.75M8.75 12.75H20.75M1.75 4.75H3.75C4.30228 4.75 4.75 4.30228 4.75 3.75V1.75C4.75 1.19772 4.30228 0.75 3.75 0.75H1.75C1.19772 0.75 0.75 1.19772 0.75 1.75V3.75C0.75 4.30228 1.19772 4.75 1.75 4.75ZM1.75 12.75H3.75C4.30228 12.75 4.75 12.3023 4.75 11.75V9.75C4.75 9.19772 4.30228 8.75 3.75 8.75H1.75C1.19772 8.75 0.75 9.19772 0.75 9.75V11.75C0.75 12.3023 1.19772 12.75 1.75 12.75Z" stroke="white" stroke-width="1.5" stroke-linecap="round"/>
</svg>
